<svg xmlns="http://www.w3.org/2000/svg" viewBox="0 0 64 64">
  <defs>
    <linearGradient id="grad" x1="0" x2="1" y1="0" y2="1">
      <stop offset="0%" stop-color="#0f1f2f"/>
      <stop offset="100%" stop-color="#b08d57"/>
    </linearGradient>
  </defs>
  <rect x="4" y="4" width="56" height="56" rx="14" fill="url(#grad)" />
  <path d="M36 10c1.5 0 2.8.9 3.4 2.3l1.8 4.3a5 5 0 0 1-.6 4.7l-4.3 6.1a3 3 0 0 0-.5 1.7v16.5a3 3 0 0 1-3 3h-2.6a3 3 0 0 1-3-3V29a3 3 0 0 0-.5-1.6l-4.4-6.3a5 5 0 0 1-.5-4.5l1.7-4.7A3.5 3.5 0 0 1 24 10h12Z" fill="#f7e6c5" opacity=".95"/>
  <g stroke="#fefefe" stroke-width="2" stroke-linecap="round" opacity=".9">
    <path d="M18 40h28"/>
    <path d="M18 34h28"/>
    <path d="M18 28h28"/>
    <path d="M18 22h28"/>
  </g>
  <circle cx="32" cy="44" r="4" fill="#fefefe" opacity=".9"/>
</svg>
